<?xml version="1.0" encoding="UTF-8"?>
<svg width="521px" height="308px" viewBox="0 0 521 308" version="1.1" xmlns="http://www.w3.org/2000/svg" xmlns:xlink="http://www.w3.org/1999/xlink">
    <title>UX Venn Diagram</title>
    <g id="UX-Venn-Diagram" stroke="none" stroke-width="1" fill="none" fill-rule="evenodd">
        <circle id="Oval" fill="#FFFAE5" cx="224.536036" cy="186.666667" r="89.3333333"></circle>
        <circle id="Oval" fill="#FFFAE5" cx="259.896396" cy="122.333333" r="89.3333333"></circle>
        <circle id="Oval-Copy" fill="#FFFAE5" cx="296.463964" cy="186.666667" r="89.3333333"></circle>
        <path d="M224.536036,97.3333333 C273.873474,97.3333333 313.869369,137.329229 313.869369,186.666667 C313.869369,189.044915 313.776435,191.401456 313.594,193.732859 C298.646487,204.992373 280.050874,211.666667 259.896396,211.666667 C210.558959,211.666667 170.563063,171.670771 170.563063,122.333333 C170.563063,119.954746 170.656024,117.597871 170.838511,115.266143 C185.786772,104.007331 204.382006,97.3333333 224.536036,97.3333333 Z" id="Combined-Shape" fill="#F5FCFF"></path>
        <path d="M260.500357,104.867961 C291.927766,118.705594 313.869369,150.123762 313.869369,186.666667 C313.869369,223.209571 291.927766,254.627739 260.500357,268.465373 C229.072266,254.627784 207.130631,223.209597 207.130631,186.666667 C207.130631,150.156963 229.032383,118.762687 260.414008,104.90572 Z" id="Combined-Shape" fill="#F5FCFF"></path>
        <path d="M296.463964,97.3333333 C316.043183,97.3333333 334.151255,103.632063 348.872387,114.31373 C349.109728,116.956406 349.22973,119.630856 349.22973,122.333333 C349.22973,171.670771 309.233834,211.666667 259.896396,211.666667 C240.317177,211.666667 222.209105,205.367937 207.487973,194.68627 C207.250647,192.043917 207.130631,189.369307 207.130631,186.666667 C207.130631,137.329229 247.126526,97.3333333 296.463964,97.3333333 Z" id="Combined-Shape" fill="#F5FCFF"></path>
        <path d="M260.500357,104.867961 L260.892951,105.041956 C261.278332,105.21387 261.662272,105.388433 262.044748,105.565622 L261.69595,105.404949 C262.107942,105.593655 262.51825,105.785401 262.926845,105.98016 L262.044748,105.565622 C262.42283,105.740777 262.799481,105.918497 263.174679,106.098761 L262.926845,105.98016 C263.372749,106.192701 263.816613,106.40883 264.258401,106.628509 L263.174679,106.098761 C263.649094,106.326693 264.121184,106.558692 264.590905,106.794713 L264.258401,106.628509 C264.659182,106.827797 265.058253,107.030006 265.455588,107.23511 L264.590905,106.794713 C264.973685,106.987049 265.354891,107.182055 265.7345,107.379707 L265.455588,107.23511 C265.822565,107.424542 266.188061,107.616443 266.552053,107.810791 L265.7345,107.379707 C266.134411,107.58793 266.532549,107.79909 266.928885,108.013158 L266.552053,107.810791 C267.004565,108.052403 267.454754,108.297795 267.902577,108.546927 L266.928885,108.013158 C267.391394,108.262968 267.851449,108.516737 268.309005,108.774422 L267.902577,108.546927 C268.285461,108.759932 268.666616,108.97567 269.046015,109.194116 L268.309005,108.774422 C268.67029,108.977889 269.030017,109.183797 269.388163,109.392123 L269.046015,109.194116 C269.412087,109.404888 269.776525,109.61818 270.139305,109.833968 L269.388163,109.392123 C269.756825,109.606567 270.123813,109.823573 270.489102,110.043117 L270.139305,109.833968 C270.599659,110.107796 271.057343,110.385644 271.512309,110.667463 L270.489102,110.043117 C270.916005,110.299692 271.340587,110.559734 271.76281,110.823204 L271.512309,110.667463 C271.878184,110.894097 272.242301,111.123299 272.604634,111.355045 L271.76281,110.823204 C272.139385,111.058189 272.514083,111.2959 272.886876,111.536311 L272.604634,111.355045 C272.979313,111.594686 273.352084,111.837046 273.722921,112.082098 L272.886876,111.536311 C273.244511,111.766945 273.600392,112.000064 273.954497,112.235642 L273.722921,112.082098 C274.127387,112.349372 274.529552,112.619849 274.929378,112.893491 L273.954497,112.235642 C274.392684,112.527159 274.82815,112.822442 275.260848,113.121445 L274.929378,112.893491 C275.290811,113.140856 275.650333,113.390808 276.007918,113.64332 L275.260848,113.121445 C275.607525,113.361005 275.952425,113.602953 276.295525,113.847266 L276.295923,113.847549 C277.057739,114.390018 277.811067,114.944439 278.55525,115.510266 L278.305598,115.321135 C278.664619,115.592137 279.021529,115.865787 279.3763,116.142054 L278.55525,115.510266 C278.885255,115.761181 279.213462,116.014338 279.539847,116.269716 L279.540102,116.269916 L280.528322,117.054409 C280.874867,117.333505 281.219284,117.615136 281.561546,117.899273 L280.68406,117.180122 C281.026837,117.457446 281.367521,117.737255 281.706084,118.019521 L281.561546,117.899273 C281.900097,118.18033 282.236538,118.463838 282.570844,118.749772 L281.706084,118.019521 C282.049431,118.305775 282.390597,118.594557 282.729553,118.885838 L282.72959,118.88587 L283.636845,119.676139 C283.974795,119.974516 284.31047,120.27541 284.64384,120.578792 L283.915186,119.922914 C284.2197,120.194022 284.522347,120.467183 284.823105,120.742374 L284.64384,120.578792 C284.947597,120.855224 285.24944,121.133722 285.549347,121.414263 L284.823105,120.742374 C285.161326,121.051845 285.497158,121.363884 285.83057,121.67846 L285.549347,121.414263 C285.920955,121.761874 286.289591,122.112623 286.655214,122.466467 L285.83057,121.67846 C286.20588,122.032567 286.578123,122.38989 286.947256,122.750385 L286.655214,122.466467 C286.960635,122.762048 287.263953,123.05979 287.565144,123.359667 L286.947256,122.750385 C287.247937,123.044029 287.546553,123.339777 287.843082,123.637605 L287.565144,123.359667 C287.871556,123.664742 288.175765,123.972027 288.477747,124.281496 L287.843082,123.637605 C288.140282,123.936108 288.435385,124.2367 288.728366,124.539358 L288.477747,124.281496 C288.828005,124.640437 289.175265,125.002316 289.519488,125.367093 L288.728366,124.539358 C289.070731,124.893031 289.4102,125.249524 289.746734,125.608801 L289.519488,125.367093 C289.824829,125.690667 290.12778,126.016521 290.428313,126.344627 L289.746734,125.608801 C290.058791,125.941947 290.368325,126.277485 290.675305,126.615386 L290.428313,126.344627 C290.707333,126.649245 290.984268,126.955805 291.259096,127.264283 L290.675305,126.615386 C290.957556,126.926066 291.237647,127.238743 291.515556,127.553393 L291.259096,127.264283 C291.605479,127.653077 291.948515,128.044918 292.288159,128.439761 L291.515556,127.553393 C291.847571,127.929302 292.176471,128.308028 292.502215,128.68953 L292.288159,128.439761 C292.580423,128.779526 292.870176,129.121513 293.157387,129.465694 L292.502215,128.68953 C292.77664,129.010929 293.048826,129.334298 293.318748,129.659613 L293.157387,129.465694 C293.441802,129.806523 293.723725,130.149504 294.003129,130.494609 L293.318748,129.659613 C293.599256,129.997687 293.877319,130.337863 294.15291,130.680113 L294.003129,130.494609 C294.290137,130.849105 294.574486,131.205842 294.856146,131.56479 L294.15291,130.680113 C294.492065,131.101302 294.827477,131.525633 295.159093,131.953055 L294.856146,131.56479 C295.145686,131.93378 295.432385,132.305105 295.716209,132.678733 L295.159093,131.953055 C295.395262,132.257453 295.629506,132.563419 295.861807,132.870935 L295.861888,132.871043 C296.437629,133.633197 297.001514,134.404981 297.553184,135.186008 L297.35378,134.904851 C297.597603,135.24724 297.839072,135.591423 298.078162,135.937375 L297.553184,135.186008 C297.815186,135.556938 298.074433,135.929952 298.330895,136.305021 L298.330731,136.304781 C298.849148,137.062953 299.356029,137.829278 299.851291,138.603748 L299.663155,138.310807 C299.90847,138.691151 300.150976,139.073477 300.390643,139.457756 L299.851291,138.603748 C300.080297,138.961859 300.30682,139.321712 300.530834,139.683282 L300.530709,139.68308 L301.153237,140.703039 C301.386254,141.090623 301.616413,141.48012 301.843685,141.871502 L301.333438,141.00411 C301.54789,141.36401 301.759885,141.725546 301.969398,142.088693 L301.843685,141.871502 C302.065087,142.252775 302.28375,142.635836 302.499646,143.020659 L301.969398,142.088693 C302.19066,142.472203 302.409154,142.857511 302.624854,143.244589 L302.499646,143.020659 C302.746622,143.46088 302.989977,143.903405 303.229672,144.348195 L302.624854,143.244589 C302.859264,143.665244 303.090374,144.087989 303.318148,144.512791 L303.229672,144.348195 C303.426579,144.713588 303.621016,145.080508 303.81296,145.448934 L303.318148,144.512791 C303.551886,144.948714 303.782112,145.386802 304.008787,145.827017 L303.81296,145.448934 C304.000602,145.809103 304.185862,146.170711 304.368719,146.533738 L304.008787,145.827017 C304.195524,146.189669 304.379851,146.553764 304.561748,146.919281 L304.368719,146.533738 C304.622761,147.038089 304.872164,147.545177 305.116872,148.054947 L304.561748,146.919281 C304.773553,147.3449 304.982063,147.772446 305.187244,148.201888 L305.116872,148.054947 C305.286338,148.407975 305.453553,148.762289 305.618498,149.11787 L305.187244,148.201888 C305.4112,148.670628 305.631191,149.141625 305.847172,149.614837 L305.618498,149.11787 C305.800001,149.509146 305.978755,149.901957 306.154735,150.296278 L305.847172,149.614837 C306.007524,149.966166 306.165666,150.318716 306.32158,150.672468 L306.154735,150.296278 C306.375492,150.79093 306.591884,151.287957 306.803863,151.787312 L306.32158,150.672468 C306.530726,151.146998 306.735864,151.623693 306.936949,152.102509 L306.803863,151.787312 C306.971978,152.183337 307.137316,152.580827 307.299855,152.979755 L306.936949,152.102509 C307.109131,152.512501 307.278342,152.924048 307.444556,153.337123 L307.444601,153.337235 C307.806749,154.237248 308.154708,155.14463 308.488155,156.058991 L308.334797,155.641713 C308.479126,156.031404 308.620814,156.422375 308.759841,156.814607 L308.488155,156.058991 C308.636474,156.465704 308.781922,156.873797 308.924474,157.283247 L308.92438,157.282978 C309.236553,158.179628 309.534753,159.08251 309.818818,159.991635 L309.695127,159.598979 C309.840145,160.055634 309.981592,160.513881 310.119434,160.973686 L309.818818,159.991635 C309.942327,160.386917 310.063164,160.783379 310.181308,161.181 L310.181296,161.180961 C310.461,162.122327 310.725597,163.070149 310.974816,164.024187 L310.884068,163.679625 C310.999148,164.113036 311.111053,164.547741 311.219754,164.983713 L310.974816,164.024187 C311.085893,164.449399 311.193915,164.875846 311.298857,165.303503 L311.298774,165.303165 L311.578528,166.477654 C311.67646,166.90158 311.771376,167.32666 311.86325,167.75287 L311.679415,166.919512 C311.775138,167.343738 311.867842,167.769108 311.957504,168.195597 L311.86325,167.75287 C311.965139,168.22554 312.063288,168.699601 312.157664,169.17502 L311.957504,168.195597 C312.041046,168.592974 312.121947,168.991323 312.200187,169.390626 L312.157664,169.17502 C312.258278,169.681863 312.354604,170.190249 312.446604,170.70014 L312.200187,169.390626 C312.30398,169.920333 312.403091,170.451717 312.497475,170.984733 L312.446604,170.70014 C312.521998,171.118 312.594485,171.53687 312.664045,171.956729 L312.497475,170.984733 C312.581019,171.45653 312.66086,171.929606 312.736967,172.40393 L312.664045,171.956729 C312.737969,172.402924 312.808585,172.850235 312.875869,173.298637 L312.736967,172.40393 C312.80536,172.83018 312.870738,173.257437 312.933078,173.685679 L312.875869,173.298637 C312.955536,173.829564 313.03053,174.362019 313.100809,174.895961 L312.933078,173.685679 C313.01399,174.241503 313.089784,174.798987 313.16041,175.358081 L313.100809,174.895961 C313.156533,175.319316 313.209292,175.743605 313.259065,176.168807 L313.16041,175.358081 C313.215955,175.797785 313.268304,176.238484 313.317432,176.680155 L313.259065,176.168807 C313.314773,176.64471 313.36674,177.121756 313.414937,177.599915 L313.317432,176.680155 C313.365277,177.110286 313.410068,177.54134 313.451783,177.973292 L313.414937,177.599915 C313.469763,178.143847 313.51971,178.68922 313.564733,179.235989 L313.451783,177.973292 C313.502616,178.499669 313.548882,179.027382 313.590539,179.55639 L313.564733,179.235989 C313.601729,179.685278 313.6354,180.13551 313.665722,180.586659 L313.590539,179.55639 C313.627165,180.021503 313.660228,180.487618 313.689702,180.954707 L313.689711,180.954836 C313.751628,181.936078 313.797709,182.921751 313.827691,183.911472 L313.815395,183.531842 C313.832527,184.028621 313.845604,184.52643 313.854592,185.025237 L313.827691,183.911472 C313.841557,184.369197 313.85198,184.827787 313.858935,185.287219 L313.858939,185.28747 L313.869369,186.666667 L313.869369,186.666667 C313.869369,187.439845 313.859547,188.210728 313.84002,188.9792 L313.85628,188.211538 C313.850336,188.562123 313.842371,188.912216 313.832398,189.261806 L313.84002,188.9792 C313.830839,189.340513 313.819513,189.701292 313.806053,190.061526 L313.832398,189.261806 C313.820187,189.689861 313.804965,190.117163 313.786752,190.54369 L313.806053,190.061526 C313.790906,190.46693 313.773058,190.871644 313.752525,191.27565 L313.786752,190.54369 C313.770501,190.924264 313.751869,191.304222 313.73087,191.683549 L313.752525,191.27565 C313.73519,191.616743 313.715942,191.957331 313.694791,192.297404 L313.73087,191.683549 C313.708222,192.092685 313.68282,192.501087 313.654683,192.908737 L313.694791,192.297404 C313.670592,192.686489 313.643902,193.074899 313.614737,193.462619 L313.614705,193.463047 L313.593937,193.733654 L313.593937,193.733654 L312.781075,194.338301 C312.702832,194.395864 312.624491,194.453303 312.546053,194.510617 L312.780704,194.338314 C312.395965,194.621364 312.008876,194.901405 311.61947,195.178401 L312.546053,194.510617 C312.173172,194.783079 311.798101,195.052722 311.42087,195.319514 L311.61947,195.178401 C311.23251,195.453659 310.843263,195.725909 310.451763,195.99512 L311.42087,195.319514 C311.058444,195.575835 310.694025,195.829524 310.327641,196.080555 L310.327964,196.080096 L309.315058,196.763997 C309.259532,196.800938 309.203963,196.837818 309.14835,196.874637 C308.403532,197.367979 307.650899,197.850226 306.890672,198.321382 L307.051745,198.221115 C306.667407,198.460445 306.28112,198.696936 305.892911,198.93056 L306.890672,198.321382 C306.49038,198.569467 306.087982,198.814476 305.683511,199.056378 L305.892911,198.93056 C305.482493,199.177549 305.069927,199.421332 304.655249,199.661876 L305.683511,199.056378 C305.283837,199.295411 304.882138,199.53141 304.478448,199.764343 L304.655249,199.661876 C304.254793,199.894169 303.852367,200.123441 303.448002,200.349661 L304.478448,199.764343 C304.082059,199.993062 303.68375,200.218825 303.283551,200.441602 L303.448002,200.349661 C303.062542,200.565303 302.675321,200.778172 302.286364,200.98824 L302.286329,200.988417 C301.886305,201.204303 301.484411,201.417404 301.080711,201.627512 L301.992591,201.146347 C301.630355,201.340232 301.266627,201.531693 300.901427,201.720708 L301.080711,201.627512 C300.675447,201.838433 300.268362,202.046339 299.859488,202.2512 L300.901427,201.720708 C300.475872,201.940961 300.04832,202.157893 299.618805,202.37147 L299.859488,202.2512 C299.453615,202.454556 299.045977,202.654912 298.636605,202.852238 L299.618805,202.37147 C299.191922,202.583737 298.7631,202.792691 298.332373,202.998295 L298.636605,202.852238 C298.180999,203.071848 297.723245,203.287706 297.263382,203.49977 L298.332373,202.998295 C297.939693,203.185739 297.545429,203.3704 297.149608,203.552252 L297.263382,203.49977 C296.857552,203.686917 296.45008,203.871109 296.040994,204.05232 L297.149608,203.552252 C296.698371,203.759564 296.245109,203.963226 295.78986,204.163201 L296.040994,204.05232 C295.602644,204.246492 295.162441,204.437242 294.720417,204.624533 L295.78986,204.163201 C295.369101,204.348026 294.946644,204.529701 294.52252,204.708195 L294.522767,204.707999 C293.687431,205.059647 292.845879,205.398771 291.99809,205.725338 L292.254647,205.625978 C291.780546,205.810296 291.304481,205.990682 290.826494,206.167096 L291.99809,205.725338 C291.578726,205.886877 291.157836,206.045344 290.735447,206.200711 L290.826494,206.167096 C290.405916,206.322322 289.98385,206.474474 289.560322,206.623523 L290.735447,206.200711 C290.272267,206.371082 289.807286,206.537725 289.340539,206.700605 L289.560322,206.623523 C289.113246,206.78086 288.664542,206.93474 288.214241,207.085132 L289.340539,206.700605 C288.893661,206.856551 288.445164,207.009048 287.995081,207.158062 L288.214241,207.085132 C287.75678,207.237915 287.297671,207.387098 286.836948,207.532647 L287.995081,207.158062 C287.568161,207.299407 287.139813,207.43762 286.710065,207.572672 L286.71009,207.572619 C285.828241,207.849794 284.940522,208.113609 284.047144,208.363883 L284.213769,208.316994 C283.767081,208.443074 283.318973,208.565766 282.869474,208.685042 L284.047144,208.363883 C283.57357,208.496552 283.098406,208.625415 282.621687,208.750438 L282.869474,208.685042 C282.400847,208.809394 281.930708,208.930032 281.45909,209.046923 L282.621687,208.750438 C282.172979,208.868116 281.722892,208.982391 281.271457,209.093234 L281.45909,209.046923 C281.005129,209.159437 280.549799,209.26848 280.093128,209.374021 L281.271457,209.093234 C280.789887,209.211477 280.306783,209.325815 279.822179,209.436213 L280.093128,209.374021 C279.625934,209.481995 279.157336,209.586304 278.687368,209.686916 L279.822179,209.436213 C279.349719,209.543844 278.875835,209.64773 278.400558,209.747838 L278.400673,209.747798 C277.525339,209.932186 276.6454,210.103721 275.760945,210.262239 L275.874994,210.241712 C275.419289,210.324 274.962382,210.402831 274.504301,210.478178 L275.760945,210.262239 C275.276955,210.348983 274.791613,210.431829 274.304953,210.510743 L274.504301,210.478178 C274.0368,210.555075 273.568077,210.628341 273.098161,210.697949 L274.304953,210.510743 C273.808836,210.591191 273.311349,210.667552 272.812527,210.739792 L273.098161,210.697949 C272.608222,210.770522 272.116987,210.839117 271.624489,210.903701 L272.812527,210.739792 C272.347377,210.807156 271.881066,210.870935 271.413624,210.931102 L271.624489,210.903701 C271.127745,210.968842 270.629717,211.029901 270.130439,211.086844 L271.413624,210.931102 C270.959665,210.989533 270.504638,211.044556 270.04857,211.096146 L270.130439,211.086844 C269.664793,211.139952 269.198061,211.189479 268.730269,211.235398 L268.730754,211.235353 C268.281578,211.279443 267.831914,211.320167 267.3813,211.357547 L268.637686,211.24444 C268.140071,211.292765 267.641261,211.337008 267.141289,211.377134 L267.3813,211.357547 C266.88613,211.398623 266.389814,211.435661 265.892385,211.468626 L267.141289,211.377134 C266.650723,211.416506 266.159039,211.451914 265.666269,211.483327 L265.892385,211.468626 C265.402151,211.501115 264.910837,211.529649 264.418473,211.554197 L265.666269,211.483327 C265.183523,211.514101 264.699734,211.54104 264.214933,211.564115 L264.418473,211.554197 C263.900009,211.580046 263.380382,211.601475 262.859628,211.618447 L264.214933,211.564115 C263.75095,211.5862 263.28604,211.604744 262.820228,211.619723 L262.859628,211.618447 C262.371864,211.634344 261.883112,211.646331 261.393401,211.654377 L262.820228,211.619723 C262.326744,211.635591 261.832249,211.647457 261.336774,211.65529 L261.337395,211.65528 L259.896396,211.666667 L259.896396,211.666667 L258.550012,211.656727 C258.016642,211.648847 257.484405,211.636292 256.95334,211.619103 L258.358011,211.653687 C257.885302,211.645706 257.413487,211.634052 256.942593,211.618754 L256.95334,211.619103 C256.497449,211.604346 256.042422,211.586174 255.588283,211.564611 L256.942593,211.618754 C256.40208,211.601195 255.862782,211.578833 255.324738,211.551712 L255.588283,211.564611 C255.083746,211.540655 254.580304,211.512513 254.077993,211.48022 L255.324738,211.551712 C254.85234,211.527899 254.38091,211.500417 253.910475,211.469293 L254.077993,211.48022 C253.611109,211.450204 253.1452,211.416602 252.680296,211.37944 L252.67945,211.379373 C252.191096,211.340337 251.703007,211.297292 251.216062,211.250338 L252.527596,211.367104 C252.039291,211.327234 251.552097,211.283438 251.066047,211.235746 L251.216062,211.250338 C250.749656,211.205365 250.2843,211.156806 249.82002,211.104687 L251.066047,211.235746 C250.549404,211.185052 250.034052,211.129958 249.520029,211.0705 L249.82002,211.104687 C249.327235,211.04937 248.835662,210.990043 248.345336,210.92674 L249.520029,211.0705 C249.05093,211.016238 248.582938,210.958342 248.116082,210.896842 L248.345336,210.92674 C247.843477,210.861949 247.342924,210.792993 246.843712,210.719908 L248.116082,210.896842 C247.663813,210.837262 247.212611,210.7743 246.762501,210.707981 L246.843712,210.719908 C246.389621,210.653429 245.936639,210.583534 245.484794,210.510249 L246.762501,210.707981 C246.300505,210.63991 245.839661,210.568303 245.379996,210.493188 L245.484794,210.510249 C244.999197,210.43149 244.514912,210.348817 244.031974,210.262262 L245.379996,210.493188 C244.909716,210.416338 244.44067,210.335816 243.972889,210.251652 L244.031974,210.262262 C243.567922,210.179092 243.105112,210.092339 242.643575,210.002031 L243.972889,210.251652 C243.489645,210.164706 243.007751,210.073873 242.52724,209.979188 L242.643575,210.002031 C242.197459,209.914741 241.752531,209.82413 241.308819,209.730226 L242.52724,209.979188 C242.017699,209.878782 241.509713,209.774043 241.003322,209.665012 L241.308819,209.730226 C240.837782,209.630539 240.368115,209.527141 239.89985,209.420062 L239.899799,209.42005 C239.455868,209.318536 239.013146,209.213703 238.571712,209.105588 L239.636684,209.359462 C239.21544,209.261786 238.795339,209.161131 238.376403,209.057519 L238.571712,209.105588 C238.108937,208.992247 237.647578,208.8753 237.187665,208.754779 L238.376403,209.057519 C237.898423,208.939304 237.42196,208.817241 236.947049,208.691365 L237.187665,208.754779 C236.716875,208.631408 236.247601,208.504292 235.779878,208.373465 L236.947049,208.691365 C236.492101,208.57078 236.038577,208.446695 235.586508,208.319141 L235.779878,208.373465 C235.308972,208.241747 234.839638,208.106268 234.371909,207.967061 L235.586508,208.319141 C235.146866,208.195093 234.7086,208.067765 234.271738,207.937183 L234.371909,207.967061 C233.94623,207.840369 233.521882,207.71059 233.098889,207.577749 L233.098681,207.577684 C232.645344,207.435314 232.193358,207.289358 231.742963,207.139916 L232.907732,207.517479 C232.475394,207.380628 232.044479,207.240577 231.615015,207.097354 L231.742963,207.139916 C231.3172,206.998646 230.892859,206.85426 230.469966,206.706784 L231.615015,207.097354 C231.141616,206.939479 230.66998,206.777748 230.200144,206.6122 L230.469966,206.706784 C230.016614,206.548686 229.564926,206.387037 229.114936,206.221871 L230.200144,206.6122 C229.760512,206.457295 229.322456,206.299047 228.886007,206.137487 L229.114936,206.221871 C228.658864,206.054473 228.204537,205.883462 227.751988,205.708872 L228.886007,206.137487 C228.449601,205.975943 228.014802,205.811087 227.581639,205.642951 L227.751988,205.708872 C227.318716,205.541719 226.887074,205.371286 226.457093,205.197603 L227.581639,205.642951 C227.180448,205.487225 226.78066,205.328684 226.382301,205.167353 L226.457093,205.197603 C226.052193,205.034051 225.648765,204.867617 225.246835,204.698328 L226.382301,205.167353 C225.933901,204.985756 225.487311,204.800623 225.042565,204.61199 L225.246835,204.698328 C224.818573,204.517947 224.392012,204.334323 223.967183,204.147488 L225.042565,204.61199 C224.61234,204.429516 224.183841,204.243766 223.757099,204.054771 L223.757135,204.054787 C222.905871,203.677781 222.061634,203.287881 221.224637,202.88532 L221.353632,202.947234 C220.962776,202.760022 220.573494,202.570051 220.18581,202.377347 L221.224637,202.88532 C220.828858,202.694967 220.434697,202.501782 220.042182,202.305793 L220.18581,202.377347 C219.776723,202.174004 219.369415,201.967617 218.963917,201.758216 L220.042182,202.305793 C219.606114,202.088058 219.172078,201.866861 218.740107,201.642238 L218.963917,201.758216 C218.542903,201.540802 218.123838,201.320139 217.706758,201.09626 L218.740107,201.642238 C218.326992,201.42742 217.915768,201.20947 217.506464,200.988417 L217.506548,200.988462 C215.902201,200.122003 214.327456,199.207941 212.784125,198.248127 L212.902981,198.321915 C212.506163,198.075991 212.111415,197.827045 211.718768,197.575109 L212.784125,198.248127 C212.393353,198.005101 212.004594,197.759142 211.61788,197.510281 L211.718768,197.575109 C211.337058,197.330192 210.957335,197.082449 210.579626,196.831911 L211.61788,197.510281 C211.205093,197.244641 210.794636,196.975694 210.386546,196.703478 L210.579626,196.831911 C210.214095,196.589449 209.850451,196.344369 209.488721,196.096698 L209.48896,196.096861 C209.404944,196.039337 209.32127,195.981837 209.237699,195.924198 C208.649067,195.518224 208.065406,195.105268 207.486975,194.685545 L207.396446,193.609671 C207.372114,193.293131 207.349431,192.976129 207.328407,192.658673 L207.386667,193.462987 C207.357112,193.073258 207.3301,192.682847 207.305638,192.291767 L207.328407,192.658673 C207.30115,192.247106 207.27668,191.834777 207.255016,191.421705 L207.305638,192.291767 C207.283589,191.939246 207.263612,191.586183 207.245713,191.232585 L207.255016,191.421705 C207.233045,191.002775 207.21396,190.58308 207.197781,190.162641 L207.245713,191.232585 C207.225857,190.840306 207.208559,190.44737 207.193828,190.05379 L207.197781,190.162641 C207.186237,189.862641 207.176172,189.562262 207.167593,189.261512 L207.193828,190.05379 C207.179659,189.675231 207.167866,189.296076 207.158454,188.916338 L207.158399,188.916103 C207.139925,188.168679 207.130631,187.418758 207.130631,186.666667 L207.13977,185.375579 C207.146182,184.92296 207.15596,184.471154 207.169081,184.020187 L207.148596,184.856977 C207.157018,184.433116 207.168393,184.009978 207.1827,183.587584 L207.1827,183.587593 C207.215643,182.614974 207.264134,181.646307 207.327932,180.681824 L207.315044,180.879982 C207.346207,180.392563 207.38128,179.906206 207.42023,179.420943 L207.327932,180.681824 C207.359866,180.199054 207.395636,179.717333 207.43521,179.23669 L207.42023,179.420943 C207.459628,178.930097 207.502994,178.440369 207.550296,177.951793 L207.43521,179.23669 C207.480247,178.689692 207.530213,178.14409 207.585062,177.599929 L207.550296,177.951793 C207.592264,177.518314 207.637329,177.085742 207.68547,176.654098 L207.585062,177.599929 C207.630409,177.150038 207.679095,176.701131 207.731093,176.253235 L207.68547,176.654098 C207.740511,176.160587 207.799573,175.66829 207.862622,175.177241 L207.731093,176.253235 C207.781226,175.821409 207.834438,175.390523 207.890707,174.960598 L207.862622,175.177241 C207.927711,174.670297 207.99705,174.164683 208.070601,173.660435 L207.890707,174.960598 C207.960324,174.428687 208.03462,173.898249 208.113553,173.369325 L208.070601,173.660435 C208.13378,173.227291 208.200068,172.795156 208.269441,172.364052 L208.113553,173.369325 C208.180442,172.921111 208.25066,172.473984 208.324181,172.02797 L208.324173,172.028024 C208.487084,171.039732 208.666206,170.056962 208.861264,169.079942 L208.778736,169.498546 C208.866627,169.04703 208.95792,168.596728 209.052585,168.14767 L208.861264,169.079942 C208.949838,168.636285 209.041698,168.193813 209.136818,167.752554 L209.136777,167.752745 C209.333555,166.839893 209.544237,165.932417 209.768628,165.030361 L209.706969,165.279772 C209.814155,164.843495 209.924545,164.408477 210.038114,163.974746 L209.768628,165.030361 C209.876319,164.597442 209.987168,164.165772 210.101149,163.735376 L210.101292,163.734833 C210.353598,162.782116 210.621411,161.835106 210.904307,160.894627 L210.818706,161.180953 C210.940585,160.770762 211.06533,160.361805 211.192918,159.954105 L210.904307,160.894627 C211.028485,160.481802 211.155568,160.070236 211.285534,159.659952 L211.285404,159.660364 C211.588166,158.704589 211.906425,157.756178 212.240013,156.81502 L212.088157,157.246993 C212.226665,156.849713 212.367899,156.453712 212.511838,156.059011 L212.240013,156.81502 C212.382604,156.412726 212.527995,156.011757 212.676163,155.612137 L212.511838,156.059011 C212.699684,155.543907 212.892136,155.031019 213.089144,154.520395 L212.676163,155.612137 C212.837844,155.176074 213.002831,154.741617 213.171094,154.308796 L213.089144,154.520395 C213.24183,154.124649 213.397252,153.730264 213.555388,153.337263 L213.171094,154.308796 C213.343972,153.864105 213.520308,153.421142 213.70007,152.979938 L213.555388,153.337263 C213.729038,152.905703 213.905961,152.475811 214.086124,152.047619 L213.70007,152.979938 C213.862708,152.580763 214.028151,152.183028 214.196372,151.786759 L214.086124,152.047619 C214.279913,151.587045 214.47745,151.128437 214.6787,150.671833 L214.196372,151.786759 C214.393182,151.323146 214.593796,150.861539 214.798176,150.401976 L214.6787,150.671833 C214.849177,150.285047 215.022317,149.8997 215.198097,149.515814 L214.798176,150.401976 C214.981093,149.990672 215.167027,149.581006 215.355949,149.173005 L215.198097,149.515814 C215.399577,149.075802 215.604526,148.637709 215.812908,148.201571 L215.355949,149.173005 C215.531485,148.793914 215.7096,148.41626 215.890272,148.040067 L215.812908,148.201571 C216.023393,147.761032 216.237381,147.322487 216.454837,146.885973 L215.890272,148.040067 C216.099638,147.60413 216.312437,147.170155 216.528635,146.738176 L216.454837,146.885973 C216.645789,146.50266 216.839415,146.120912 217.03569,145.740754 L216.528635,146.738176 C216.744687,146.306488 216.964133,145.876794 217.186939,145.449128 L217.03569,145.740754 C217.247917,145.3297 217.463242,144.920505 217.681632,144.5132 L217.186939,145.449128 C217.380518,145.077561 217.576633,144.707525 217.775261,144.339044 L217.681632,144.5132 C217.909617,144.088001 218.140943,143.664862 218.375576,143.243818 L217.775261,144.339044 C218.026941,143.872144 218.282655,143.407739 218.542356,142.945877 L218.375576,143.243818 C218.591212,142.856864 218.80964,142.471679 219.030834,142.088291 L218.542356,142.945877 C218.746473,142.582869 218.953052,142.221432 219.162073,141.861588 L219.030834,142.088291 C219.255629,141.698661 219.48328,141.310887 219.713758,140.924997 L219.714128,140.924378 C219.962339,140.508799 220.214209,140.094793 220.469332,139.683014 L219.847014,140.702622 C220.097787,140.285508 220.35187,139.87061 220.609227,139.457964 L220.469332,139.683014 C220.695427,139.318089 220.924076,138.954914 221.155255,138.593513 L220.609227,139.457964 C220.841977,139.084774 221.077404,138.713426 221.315481,138.343947 L221.315567,138.343814 C221.83969,137.530412 222.376749,136.72594 222.926371,135.930816 L222.676119,136.294765 C222.930368,135.923043 223.187352,135.55334 223.447044,135.185685 L222.926371,135.930816 C223.169988,135.578381 223.416073,135.227784 223.664602,134.879047 L223.664624,134.879016 C224.194852,134.134999 224.736224,133.399425 225.288475,132.672567 L225.138328,132.870756 C225.386992,132.541582 225.637881,132.214184 225.890974,131.888583 L225.288475,132.672567 C225.554651,132.322235 225.823353,131.973928 226.094556,131.627673 L226.094226,131.628094 C226.666279,130.897732 227.249113,130.176911 227.842804,129.465465 L227.681259,129.659605 C227.967652,129.314439 228.256593,128.971464 228.548053,128.630709 L227.842804,129.465465 C228.114881,129.139422 228.389239,128.815348 228.665853,128.493267 L228.548053,128.630709 C228.857495,128.268932 229.169776,127.909657 229.484863,127.552918 L228.665853,128.493267 C229.020475,128.080355 229.378804,127.670719 229.740789,127.264411 L229.484863,127.552918 C229.758142,127.243515 230.03353,126.93602 230.311007,126.630455 L229.740789,127.264411 C230.019039,126.952091 230.299449,126.641738 230.581995,126.333374 L230.311007,126.630455 C230.629819,126.279371 230.951388,125.930835 231.275679,125.584882 L230.581995,126.333374 C230.858277,126.031848 231.136601,125.732224 231.416946,125.434525 L231.275679,125.584882 C231.604974,125.233591 231.937075,124.884963 232.271947,124.539034 L231.416946,125.434525 C231.783232,125.045565 232.152967,124.65989 232.526104,124.277549 L232.271947,124.539034 C232.564874,124.236435 232.859922,123.935902 233.157065,123.637457 L232.526104,124.277549 C232.816703,123.979782 233.109365,123.684037 233.404066,123.390337 L233.157065,123.637457 C233.485288,123.307797 233.816068,122.980687 234.149374,122.656157 L233.404066,123.390337 C233.702253,123.093164 234.002529,122.798084 234.304869,122.505122 L234.149374,122.656157 C234.499063,122.315676 234.851531,121.978037 235.206742,121.643276 L234.304869,122.505122 C234.683701,122.138041 235.065773,121.774285 235.45104,121.413901 L235.206742,121.643276 C235.495307,121.371324 235.785681,121.101272 236.077845,120.83314 L235.45104,121.413901 C235.762501,121.122556 236.076049,120.833415 236.39166,120.546502 L236.077845,120.83314 C236.425364,120.514207 236.775416,120.197989 237.127966,119.884521 L237.128192,119.88432 C237.505957,119.548433 237.88682,119.215505 238.270514,118.88578 L237.386472,119.65556 C237.741844,119.34202 238.099729,119.031264 238.460093,118.723324 L238.270514,118.88578 C238.575333,118.623836 238.881939,118.363912 239.190311,118.106031 L238.460093,118.723324 C238.803683,118.429719 239.149526,118.138674 239.497594,117.850219 L239.497602,117.850212 L240.41628,117.099061 C240.74106,116.837069 241.067713,116.577304 241.396215,116.31979 L240.551106,116.990515 C240.925476,116.689709 241.302321,116.391859 241.681607,116.096999 L241.396215,116.31979 C241.715736,116.069317 242.037006,115.820973 242.360004,115.574781 L241.681607,116.096999 C242.033237,115.823638 242.386965,115.552848 242.742762,115.284656 L242.360004,115.574781 C242.798546,115.24052 243.240274,114.910224 243.685133,114.583947 L242.742762,115.284656 C243.088378,115.024139 243.435946,114.766073 243.78544,114.510485 L243.685133,114.583947 C244.025013,114.334667 244.36672,114.087732 244.710232,113.843166 L243.78544,114.510485 C244.185209,114.218131 244.587499,113.929019 244.99227,113.643187 L244.710232,113.843166 C245.051106,113.60048 245.393755,113.360127 245.738159,113.122131 L244.99227,113.643187 C245.349741,113.390757 245.709147,113.140886 246.070462,112.8936 L245.738159,113.122131 C246.16178,112.829392 246.588053,112.540219 247.016936,112.254655 L246.070462,112.8936 C246.471915,112.618844 246.875724,112.347279 247.281854,112.078943 L247.016936,112.254655 C247.38617,112.008807 247.757338,111.765635 248.130412,111.525165 L247.281854,112.078943 C247.638525,111.843284 247.996986,111.610115 248.357212,111.379461 L248.130412,111.525165 C248.514521,111.277582 248.90065,111.032865 249.28877,110.791042 L248.357212,111.379461 C248.718965,111.147829 249.082498,110.918732 249.447785,110.692197 L249.28877,110.791042 C249.700433,110.53455 250.114336,110.281316 250.530442,110.031374 L249.447785,110.692197 C249.87074,110.429898 250.296047,110.171033 250.723668,109.915641 L250.530442,110.031374 C250.889205,109.815877 251.249605,109.602827 251.611621,109.392249 L250.723668,109.915641 C251.131564,109.672028 251.541566,109.431575 251.953638,109.194315 L251.611621,109.392249 C252.002639,109.1648 252.395541,108.940234 252.790298,108.71858 L251.953638,109.194315 C252.30824,108.990146 252.664375,108.788341 253.022022,108.588922 L252.790298,108.71858 C253.208532,108.483744 253.628848,108.252176 254.051212,108.023912 L253.022022,108.588922 C253.51297,108.315176 254.006767,108.045927 254.503358,107.78123 L254.051212,108.023912 C254.439642,107.813986 254.829804,107.606854 255.221671,107.402543 L254.503358,107.78123 C254.8537,107.594488 255.205433,107.410012 255.558536,107.22782 L255.558849,107.227659 C256.389784,106.79892 257.228629,106.382684 258.074817,105.979367 L257.825076,106.098878 C258.218387,105.90991 258.613296,105.723738 259.009776,105.540386 L258.074817,105.979367 C258.455636,105.797858 258.837942,105.618966 259.221712,105.442714 L259.221889,105.442632 L260.414008,104.90572 L260.414008,104.90572 L260.500357,104.867961 Z" id="Combined-Shape" fill="#F5FFE3"></path>
        <path d="M224.536036,97.3333333 C273.873474,97.3333333 313.869369,137.329229 313.869369,186.666667 C313.869369,236.004104 273.873474,276 224.536036,276 C175.198598,276 135.202703,236.004104 135.202703,186.666667 C135.202703,137.329229 175.198598,97.3333333 224.536036,97.3333333 Z M224.536036,98.3333333 C175.750883,98.3333333 136.202703,137.881514 136.202703,186.666667 C136.202703,235.45182 175.750883,275 224.536036,275 C273.321189,275 312.869369,235.45182 312.869369,186.666667 C312.869369,137.881514 273.321189,98.3333333 224.536036,98.3333333 Z" id="Oval" fill="#10162F" fill-rule="nonzero"></path>
        <path d="M259.896396,33 C309.233834,33 349.22973,72.9958957 349.22973,122.333333 C349.22973,171.670771 309.233834,211.666667 259.896396,211.666667 C210.558959,211.666667 170.563063,171.670771 170.563063,122.333333 C170.563063,72.9958957 210.558959,33 259.896396,33 Z M259.896396,34 C211.111243,34 171.563063,73.5481804 171.563063,122.333333 C171.563063,171.118486 211.111243,210.666667 259.896396,210.666667 C308.681549,210.666667 348.22973,171.118486 348.22973,122.333333 C348.22973,73.5481804 308.681549,34 259.896396,34 Z" id="Oval" fill="#10162F" fill-rule="nonzero"></path>
        <path d="M296.463964,97.3333333 C345.801402,97.3333333 385.797297,137.329229 385.797297,186.666667 C385.797297,236.004104 345.801402,276 296.463964,276 C247.126526,276 207.130631,236.004104 207.130631,186.666667 C207.130631,137.329229 247.126526,97.3333333 296.463964,97.3333333 Z M296.463964,98.3333333 C247.678811,98.3333333 208.130631,137.881514 208.130631,186.666667 C208.130631,235.45182 247.678811,275 296.463964,275 C345.249117,275 384.797297,235.45182 384.797297,186.666667 C384.797297,137.881514 345.249117,98.3333333 296.463964,98.3333333 Z" id="Oval-Copy" fill="#10162F" fill-rule="nonzero"></path>
        <path d="M224.536036,97.3333333 C273.873474,97.3333333 313.869369,137.329229 313.869369,186.666667 C313.869369,189.044915 313.776435,191.401456 313.594,193.732859 C298.646487,204.992373 280.050874,211.666667 259.896396,211.666667 C210.558959,211.666667 170.563063,171.670771 170.563063,122.333333 C170.563063,119.954746 170.656024,117.597871 170.838511,115.266143 C185.786772,104.007331 204.382006,97.3333333 224.536036,97.3333333 Z M224.536036,98.3333333 C205.377019,98.3333333 187.147197,104.447776 172.075102,115.591086 L171.803,115.794 L171.75234,116.503519 C171.65154,118.050897 171.590883,119.604491 171.570652,121.163282 L171.563063,122.333333 C171.563063,171.118486 211.111243,210.666667 259.896396,210.666667 C279.056046,210.666667 297.286241,204.551817 312.357406,193.407971 L312.629,193.204 L312.680146,192.495657 C312.780917,190.948496 312.841558,189.395122 312.861783,187.836552 L312.869369,186.666667 C312.869369,137.881514 273.321189,98.3333333 224.536036,98.3333333 Z" id="Combined-Shape" fill="#10162F" fill-rule="nonzero"></path>
        <path d="M260.500357,104.867961 C291.927766,118.705594 313.869369,150.123762 313.869369,186.666667 C313.869369,223.209571 291.927766,254.627739 260.500357,268.465373 C229.072266,254.627784 207.130631,223.209597 207.130631,186.666667 C207.130631,150.52206 228.596538,119.391084 259.475416,105.326678 L260.500357,104.867961 Z M260.499,105.963 L259.868409,106.246455 C228.641632,120.474796 208.130631,151.694016 208.130631,186.666667 C208.130631,221.672461 228.68057,252.915605 259.952417,267.124803 L260.5,267.369 L261.048272,267.124803 C292.003717,253.059026 312.453128,222.301732 312.863089,187.726278 L312.869369,186.666667 C312.869369,151.661039 292.319589,120.417836 261.048272,106.20853 L260.499,105.963 Z" id="Combined-Shape" fill="#10162F" fill-rule="nonzero"></path>
        <path d="M296.463964,97.3333333 C316.043183,97.3333333 334.151255,103.632063 348.872387,114.31373 C349.109728,116.956406 349.22973,119.630856 349.22973,122.333333 C349.22973,171.670771 309.233834,211.666667 259.896396,211.666667 C240.317177,211.666667 222.209105,205.367937 207.487973,194.68627 C207.250647,192.043917 207.130631,189.369307 207.130631,186.666667 C207.130631,137.329229 247.126526,97.3333333 296.463964,97.3333333 Z M296.463964,98.3333333 C247.678811,98.3333333 208.130631,137.881514 208.130631,186.666667 C208.130631,188.951629 208.217367,191.221204 208.390311,193.472627 L208.445,194.142 L208.727481,194.345664 C223.336067,204.745606 240.768491,210.496047 259.076075,210.662929 L259.896396,210.666667 C308.681549,210.666667 348.22973,171.118486 348.22973,122.333333 C348.22973,120.048457 348.143,117.779011 347.970052,115.527456 L347.914,114.856 L347.632879,114.654336 C333.024293,104.254394 315.59187,98.5039526 297.284285,98.337071 L296.463964,98.3333333 Z" id="Combined-Shape" fill="#10162F" fill-rule="nonzero"></path>
        <path d="M272.326261,111.177723 L272.604634,111.355045 L273.722921,112.082098 L274.13,112.354 L274.809,112.812 L275.470091,113.266475 L276.295923,113.847549 C276.8038,114.209195 277.307905,114.576153 277.808043,114.948261 L278.638,115.574 L279.540102,116.269916 L280.528322,117.054409 L281.561546,117.899273 L281.809,118.106 L282.72959,118.88587 L283.636845,119.676139 L284.029,120.025 L284.873,120.789 L285.665,121.523 L285.949,121.791 L286.539,122.355 L287.396,123.192 L287.888,123.682 L288.477747,124.281496 L288.861,124.678 L289.582,125.434 L290.29,126.195 L290.839,126.797 L291.259096,127.264283 L291.561,127.605 L292.451,128.63 L293.053,129.342 L293.318748,129.659613 L293.856,130.314 L294.15291,130.680113 L294.728,131.403 L295.309,132.148 L295.861888,132.871043 C296.245715,133.379146 296.624274,133.891529 296.997456,134.408077 L297.615,135.274 L298.035,135.875 L298.330731,136.304781 C298.676342,136.810229 299.016826,137.319301 299.352159,137.831993 L299.889,138.663 L300.530709,139.68308 L301.153237,140.703039 L301.373,141.071 L301.843685,141.871502 L302.05,142.23 L302.624854,143.244589 L302.973,143.877 L303.229672,144.348195 L303.771,145.37 L304.287083,146.372074 L304.602,147.003 L305.116872,148.054947 L305.588,149.054 L305.888,149.705 L306.154735,150.296278 L306.383,150.816 L306.774,151.72 L307.254,152.87 L307.444601,153.337235 C307.686033,153.937243 307.921159,154.540527 308.149883,155.146971 L308.549,156.227 L308.708477,156.670093 L308.92438,157.282978 C309.132495,157.880745 309.334401,158.481281 309.530047,159.084591 L309.854,160.108 L310.181296,161.180961 C310.367766,161.808538 310.54752,162.438985 310.720481,163.07223 L311.139137,164.662928 L311.298774,165.303165 L311.578528,166.477654 L311.723161,167.114405 L312.013274,168.462914 L312.157664,169.17502 L312.22,169.498 L312.469,170.829 L312.675,172.027 L312.837293,173.044057 L312.966,173.922 L313.108,174.96 L313.182169,175.531692 L313.289,176.435 L313.429,177.751 L313.554,179.122 L313.616,179.91 L313.656,180.461 L313.689711,180.954836 C313.730989,181.608998 313.765229,182.265128 313.792353,182.923115 L313.838048,184.277779 L313.858939,185.28747 L313.869369,186.666667 L313.862017,187.824698 L313.841,188.916 L313.811,189.903 L313.775,190.792 L313.725089,191.786909 L313.656,192.88 L313.593937,193.733654 L312.780704,194.338314 L312.37,194.637 L311.365,195.357 L310.327964,196.080096 L309.14835,196.874637 C308.651805,197.203532 308.151786,197.527495 307.64836,197.846529 L306.743,198.411 L306.288658,198.691199 L305.513,199.156 L304.655249,199.661876 L304.363,199.83 L303.352,200.402 L302.868494,200.671041 L302.286329,200.988417 L301.892,201.199 L301.051,201.642 L299.713,202.324 L298.712,202.815 L298.15,203.083 L297.263382,203.49977 L295.939,204.097 L294.522767,204.707999 C293.965876,204.942431 293.406223,205.171297 292.843801,205.394586 L292.21,205.642 L291.805,205.798 L290.735447,206.200711 L290.039331,206.453467 L289.449,206.662 L288.123,207.115 L286.71009,207.572619 C286.122191,207.757402 285.531682,207.936248 284.938628,208.109102 L283.909,208.401 L282.708,208.727 L281.45909,209.046923 L280.308,209.323 L279.723,209.458 L278.400673,209.747798 C277.817117,209.870723 277.231514,209.987936 276.643891,210.099388 L275.874994,210.241712 L274.704,210.444 L274.284,210.513 L272.989,210.713 L272.676,210.758 L271.624489,210.903701 L271.24,210.952 L270.130439,211.086844 L269.431159,211.163817 L268.57,211.25 L267.298,211.364 L265.833,211.472 L264.328,211.558 L264.05,211.571 L262.820228,211.619723 L261.337395,211.65528 L259.896396,211.666667 L258.550012,211.656727 L256.95334,211.619103 L256.093,211.586 L255.431,211.556 L253.984,211.474 L253.029162,211.406644 L252.335,211.35 L251.066047,211.235746 L249.913,211.114 L249.372,211.052 L248.041,210.886 L246.726,210.701 L245.445,210.503 L243.972889,210.251652 L242.454,209.964 L241.454,209.76 L240.603295,209.577916 L239.899799,209.42005 L239.58,209.346 L238.482,209.083 L237.12,208.736 L235.696,208.35 L234.525,208.012 L233.734392,207.774711 L233.098681,207.577684 L231.707,207.127 L230.376,206.673 L229.186,206.247 L228.803,206.106 L227.869,205.753 L227.513,205.615 L226.457093,205.197603 L225.429,204.774 L225.042565,204.61199 L224.106,204.207 L223.757135,204.054787 C223.189625,203.80345 222.625239,203.546382 222.064039,203.283652 L221.146,202.847 L219.935,202.251 L218.662,201.601 L217.506548,200.988462 C216.223071,200.295295 214.958538,199.571662 213.713879,198.81851 L212.852,198.29 L211.544,197.463 L210.477,196.763 L210.032748,196.466258 L209.237699,195.924198 C208.649067,195.518224 208.065406,195.105268 207.486975,194.685545 L207.396446,193.609671 L207.305,192.296 L207.245713,191.232585 L207.193,190.061 L207.158399,188.916103 C207.139925,188.168679 207.130631,187.418758 207.130631,186.666667 L207.13977,185.375579 L207.163441,184.22173 L207.1827,183.587593 C207.204662,182.93918 207.233534,182.292524 207.269246,181.647693 L207.315044,180.879982 L207.341,180.486 L207.42023,179.420943 L207.537,178.093 L207.616,177.302 L207.744,176.144 L207.862622,175.177241 L207.911,174.809 L208.067,173.685 L208.263,172.403 L208.324173,172.028024 C208.43278,171.369163 208.548593,170.712756 208.671528,170.058871 L208.887,168.95 L209.042,168.195 L209.136777,167.752745 C209.267963,167.144177 209.405327,166.537998 209.548814,165.934222 L209.798,164.912 L210.101292,163.734833 C210.353598,162.782116 210.621411,161.835106 210.904307,160.894627 L211.09275,160.276336 L211.285404,159.660364 C211.487245,159.023181 211.695974,158.38927 211.911541,157.7586 L212.297961,156.652035 L212.561,155.923 L212.718,155.5 L213.21,154.21 L213.493,153.494 L213.819,152.691 L214.124,151.957 L214.609,150.83 L215.074811,149.786252 L215.413,149.05 L215.890272,148.040067 L216.528635,146.738176 L217.254,145.32 L217.775261,144.339044 L218.1558,143.640571 L218.701,142.665 L219.128,141.92 L219.54143,141.214768 L219.915,140.59 L220.469332,139.683014 L220.675,139.353 L221.315567,138.343814 C221.664982,137.801546 222.020147,137.263247 222.38095,136.72904 L222.975,135.859 L223.419,135.225 L223.664624,134.879016 C224.01811,134.383005 224.376548,133.890745 224.73986,133.40232 L225.339,132.605 L225.8,132.005 L226.094226,131.628094 C226.475595,131.141186 226.861755,130.658518 227.252729,130.180042 L227.928,129.363 L228.548053,128.630709 L229.347,127.709 L229.903,127.082 L230.697,126.207 L231.481,125.366 L232.187,124.627 L232.712925,124.086688 L233.443,123.351 L234.149374,122.656157 L234.388,122.425 L235.132,121.714 L235.640944,121.236776 L236.177,120.742 L236.601019,120.356781 L237.128192,119.88432 L237.509,119.548 L238.460093,118.723324 L238.977164,118.28484 L239.497602,117.850212 L240.41628,117.099061 L241.323,116.377 L242.003,115.847 L242.360004,115.574781 L242.9,115.167 L243.78544,114.510485 L244.653,113.884 L245.222872,113.48089 L245.739,113.121 L246.187,112.814 L246.918,112.32 L247.405,111.997 L248.437,111.328 L249.28877,110.791042 L250.6,109.989 L251.514,109.449 L252.059,109.134 L252.845,108.687 L253.145,108.52 L253.926,108.092 L254.667,107.694 L255.029911,107.502819 L255.558849,107.227659 C256.112805,106.941833 256.670278,106.661564 257.231098,106.386975 L258.176,105.931 L259.221889,105.442632 L260.500357,104.867961 L260.892951,105.041956 L261.469939,105.301811 L262.155,105.617 L262.926845,105.98016 L263.314,106.166 L264.144,106.572 L264.658,106.829 L265.512,107.265 L266.399,107.729 L266.946,108.023 L267.786,108.483 L268.511,108.889 L269.199,109.283 L270,109.751 L270.563,110.088 L271.552,110.692 L272.326261,111.177723 Z M219.813891,142.732004 L219.344867,143.558165 L218.904964,144.354043 L218.565788,144.979888 L218.010759,146.031376 L217.424044,147.18342 L217.286552,147.459866 L216.78595,148.483746 L216.321025,149.468917 L215.712824,150.806228 L215.527034,151.226501 L214.986856,152.48474 L214.567951,153.500702 L214.422992,153.861581 L214.064273,154.770558 L213.603229,155.987014 L213.379384,156.596445 L213.183418,157.146664 C212.962642,157.76955 212.749218,158.393944 212.54298,159.020334 L212.238993,159.961475 L211.960727,160.856497 L211.861922,161.182677 C211.675189,161.803465 211.49528,162.426543 211.322278,163.051662 L210.993845,164.271667 L210.722928,165.334279 L210.521718,166.165432 L210.313388,167.06298 L210.114576,167.962291 L210.021715,168.395396 L209.81977,169.389072 L209.65431,170.243641 L209.477207,171.215657 L209.250906,172.558053 L209.102853,173.515219 L209.057506,173.822472 L208.890796,175.022834 L208.73444,176.282353 L208.610651,177.405288 L208.533041,178.181898 L208.440563,179.217844 L208.407259,179.62999 L208.338837,180.551739 L208.267716,181.702989 L208.21981,182.661034 L208.182239,183.617948 L208.15175,184.715157 L208.139745,185.382658 L208.130631,186.666667 L208.137491,187.779593 L208.15802,188.888575 L208.191895,190.014012 L208.253449,191.365751 L208.302726,192.229597 L208.358554,193.06211 L208.392925,193.525822 L208.444,194.141 L208.936244,194.493801 L210.050876,195.269667 L210.588192,195.634704 L211.193026,196.037539 L212.196557,196.693773 L213.37475,197.437514 L214.231584,197.962951 C215.155794,198.522197 216.090197,199.064445 217.032897,199.588618 L217.978293,200.106727 L219.255982,200.783011 L220.525,201.428 L221.694157,202.00077 L222.488033,202.377987 L223.322381,202.763298 L224.157037,203.138229 L224.502902,203.289139 L225.429204,203.689759 L225.810126,203.849477 L226.82471,204.267626 L227.99988,204.731388 L229.149759,205.168046 L230.332124,205.596471 L230.903098,205.797635 L232.109693,206.206838 L233.39472,206.622508 L234.022831,206.817213 L234.803108,207.05145 L235.959516,207.385345 L237.498896,207.801958 L238.922966,208.161276 L240.118756,208.444316 L240.813991,208.600364 L241.653883,208.78018 L242.749878,209.003192 L244.14271,209.266177 L245.692806,209.53059 L247.065932,209.740558 L248.341164,209.917118 L249.486054,210.058526 L250.018003,210.119528 L251.157137,210.239903 L252.759135,210.382553 L253.446753,210.434848 L254.243716,210.48761 L255.475971,210.557012 L256.306275,210.595062 L256.989,210.62 L258.557394,210.656754 L259.888495,210.666698 L261.404105,210.653286 L262.778423,210.620597 L264.003288,210.572092 L264.50419,210.547615 L265.879978,210.46667 L266.913062,210.391042 L267.403298,210.351031 L268.629148,210.240528 L269.321745,210.169821 L270.009797,210.094148 L271.487237,209.913165 L272.84014,209.724142 L274.15443,209.521468 L274.534019,209.458553 L275.692985,209.258415 L276.457548,209.116904 L277.326414,208.947581 L278.188485,208.770569 L279.500724,208.483016 L280.075353,208.350439 L281.211223,208.078128 L282.448724,207.761197 L283.889093,207.368244 L284.658807,207.14905 L285.53538,206.888595 L286.404057,206.620598 L287.802021,206.167914 L289.113739,205.719875 L289.852445,205.457951 L290.382663,205.265006 L291.852,204.708 L292.474803,204.465156 L293.306755,204.129912 L294.134777,203.786335 L295.530969,203.184032 L296.837971,202.59477 L297.720334,202.180012 L298.272209,201.9169 L299.260906,201.43203 L300.36776,200.869172 L300.655064,200.720181 L301.807672,200.110415 L302.382262,199.797211 L303.033777,199.434097 L303.864349,198.963197 L304.147247,198.80052 L305.375378,198.074896 L306.43778,197.42414 L307.113072,197.001859 L307.857465,196.524852 L308.755478,195.93522 L309.75801,195.25842 L310.788093,194.54019 L311.099633,194.319511 L311.781838,193.828257 L312.192542,193.529571 L312.631,193.203 L312.656,192.88 L312.658037,192.813203 L312.726422,191.735296 L312.787467,190.50587 L312.832708,189.236939 L312.845174,188.71835 L312.862037,187.81835 L312.869398,186.674229 L312.859153,185.308183 L312.838535,184.308982 L312.82815,183.941752 C312.808419,183.290446 312.781615,182.640111 312.747861,181.99238 L312.692032,181.02294 L312.579428,179.469734 L312.558036,179.211753 L312.43415,177.852362 L312.335184,176.904041 L312.235109,176.033029 L312.168966,175.488612 L312.093325,174.916247 L311.976292,174.0651 L311.897048,173.517239 L311.743058,172.525074 L311.633411,171.862155 L311.485547,171.010162 L311.23812,169.687505 L310.951254,168.273792 L310.748,167.335905 L310.605743,166.709364 L310.328482,165.545099 L310.086321,164.581725 L309.755817,163.335712 L309.494523,162.399498 L309.223661,161.468945 L308.854139,160.260531 L308.578815,159.393065 L308.284302,158.501185 L307.981192,157.615237 L307.620523,156.598391 L307.214218,155.499862 L306.870634,154.603736 L306.518679,153.71495 L306.256129,153.073704 L305.856173,152.116981 L305.276,150.782 L304.805037,149.742211 L304.232078,148.520929 L304.210623,148.479226 L303.476075,146.984501 L303.075391,146.200597 L302.886816,145.83714 L302.378549,144.873162 L302.345306,144.816386 L301.992498,144.167033 L301.572519,143.413966 L301.000096,142.408491 L300.974729,142.367448 L300.514465,141.583756 L300.299665,141.224014 L299.683547,140.214415 L298.959274,139.066011 L298.515272,138.379369 L298.014172,137.621753 L297.505255,136.869219 L297.119194,136.310641 L296.677282,135.68026 L296.186866,134.993691 L295.629455,134.23074 L295.066159,133.476695 L294.287758,132.462644 L293.945434,132.025568 L293.376218,131.309994 L293.083112,130.948542 L292.551798,130.301321 L291.865151,129.484755 L291.426851,128.973703 L290.7655,128.215135 L290.515439,127.932844 L289.849846,127.194725 L289.143879,126.429318 L288.749721,126.009556 L287.790147,125.007585 L287.759926,124.978089 L287.046888,124.255096 L286.135046,123.356087 L285.848,123.077855 L285.262677,122.518297 L284.78379,122.068944 L283.861519,121.219926 L283.36434,120.772146 L282.980026,120.430188 L281.89348,119.486743 L280.927486,118.672557 L280.109134,118.001514 L279.906571,117.837624 L278.926759,117.05973 L277.827364,116.213523 L277.211122,115.750562 L276.466616,115.202641 L275.718753,114.664173 L274.692535,113.944708 L274.2498,113.641033 L273.57457,113.185563 L273.166,112.913 L272.067381,112.198465 L271.183817,111.641371 L270.847978,111.433543 L269.864195,110.834102 L269.025928,110.338826 L268.304161,109.921985 L267.66735,109.561597 L267.305685,109.360096 L266.394361,108.861256 L265.498585,108.385184 L264.931946,108.090974 L264.020895,107.627981 L263.704596,107.470289 L262.549435,106.906206 L261.451828,106.393286 L261.059298,106.213608 L260.501,105.962 L259.64102,106.350558 L259.293104,106.511145 L258.42683,106.919029 L257.670838,107.2851 L256.842209,107.696222 L256.02035,108.114798 L254.851149,108.728905 L254.406582,108.96895 L253.631385,109.393745 L253.244377,109.610248 L252.559074,109.999982 L252.021482,110.310662 L250.995196,110.918437 L250.016537,111.51591 L249.770794,111.668614 L248.978379,112.168778 L247.956898,112.830912 L247.477921,113.148546 L246.752278,113.638901 L245.983437,114.168142 L245.238438,114.694717 L244.37546,115.317874 L243.50263,115.965021 L242.618997,116.634748 L241.94514,117.159906 L241.237873,117.721925 L240.138595,118.617759 L239.377227,119.255897 L238.773394,119.773419 L238.170968,120.297532 L237.531698,120.864587 L236.583003,121.726281 L235.822892,122.436958 L234.850638,123.369059 L234.152377,124.055829 L233.597499,124.612637 L233.427555,124.78619 L233.238,124.974 L232.910067,125.317778 L231.985924,126.28831 L231.435956,126.880754 L230.411838,128.013622 L230.101799,128.364956 L229.261558,129.334739 L228.528784,130.203885 L228.027088,130.812789 L227.450651,131.525717 L226.881488,132.244713 L226.040202,133.334731 L225.542225,133.999155 L225.007007,134.726383 L224.480034,135.4579 L224.102594,135.991945 L223.800209,136.423828 L223.209645,137.288741 L222.678654,138.084158 L222.156824,138.884449 L221.523681,139.881906 L221.322588,140.204507 L220.772216,141.104958 L220.233742,142.009458 L219.813891,142.732004 Z" id="Combined-Shape" fill="#10162F" fill-rule="nonzero"></path>
        <g id="Context" transform="translate(230.270000, 68.654000)" fill="#10162F" fill-rule="nonzero">
            <path d="M5.838,7.196 C5.656,8.414 5.012,9.296 3.724,9.296 C2.17,9.296 1.372,7.756 1.372,5.25 C1.372,2.66 2.226,1.246 3.696,1.246 C4.984,1.246 5.614,2.254 5.782,3.416 L7.14,3.416 C6.804,1.358 5.488,0 3.738,0 C1.316,0 0,2.1 0,5.25 C0,8.33 1.162,10.528 3.64,10.528 C5.474,10.528 6.818,9.366 7.168,7.196 L5.838,7.196 Z" id="Path"></path>
            <path d="M10.514,6.608 C10.514,4.606 11.494,3.766 12.642,3.766 C13.79,3.766 14.77,4.606 14.77,6.608 C14.77,8.61 13.79,9.45 12.642,9.45 C11.494,9.45 10.514,8.61 10.514,6.608 Z M9.156,6.608 C9.156,9.338 10.92,10.528 12.642,10.528 C14.364,10.528 16.128,9.338 16.128,6.608 C16.128,3.878 14.364,2.688 12.642,2.688 C10.92,2.688 9.156,3.878 9.156,6.608 Z" id="Shape"></path>
            <path d="M20.048,2.814 L18.76,2.814 L18.76,10.346 L20.048,10.346 L20.048,6.258 C20.048,4.648 20.678,3.78 21.84,3.78 C23.24,3.78 23.338,4.788 23.338,6.006 L23.338,10.346 L24.626,10.346 L24.626,5.558 C24.626,3.892 24.08,2.688 22.26,2.688 C21.07,2.688 20.426,3.234 20.048,3.878 L20.048,2.814 Z" id="Path"></path>
            <path d="M28.966,2.814 L26.824,2.814 L26.824,3.92 L28.966,3.92 L28.966,8.456 C28.966,10.024 29.358,10.346 30.73,10.346 L33.334,10.346 L33.334,9.24 L31.01,9.24 C30.296,9.24 30.254,9.044 30.254,8.274 L30.254,3.92 L33.334,3.92 L33.334,2.814 L30.254,2.814 L30.254,0.924 L28.966,0.924 L28.966,2.814 Z" id="Path"></path>
            <path d="M39.816,10.528 C41.58,10.528 42.756,9.52 43.064,8.092 L41.734,8.092 C41.468,8.946 40.908,9.478 39.788,9.478 C38.598,9.478 37.758,8.484 37.758,6.972 L43.176,6.972 C43.274,4.284 42.014,2.674 39.816,2.674 C37.828,2.674 36.4,4.186 36.4,6.608 C36.4,8.834 37.534,10.528 39.816,10.528 Z M39.816,3.738 C41.132,3.738 41.818,4.676 41.804,5.908 L37.772,5.908 C37.828,4.452 38.598,3.738 39.816,3.738 Z" id="Shape"></path>
            <polygon id="Path" points="52.01 2.814 50.582 2.814 48.818 5.404 47.068 2.814 45.626 2.814 48.09 6.482 45.472 10.346 46.928 10.346 48.818 7.546 50.708 10.346 52.164 10.346 49.532 6.468"></polygon>
            <path d="M56.098,2.814 L53.956,2.814 L53.956,3.92 L56.098,3.92 L56.098,8.456 C56.098,10.024 56.49,10.346 57.862,10.346 L60.466,10.346 L60.466,9.24 L58.142,9.24 C57.428,9.24 57.386,9.044 57.386,8.274 L57.386,3.92 L60.466,3.92 L60.466,2.814 L57.386,2.814 L57.386,0.924 L56.098,0.924 L56.098,2.814 Z" id="Path"></path>
        </g>
        <g id="User-Experience-(UX)" transform="translate(217.348000, 141.850000)" fill="#10162F" fill-rule="nonzero">
            <path d="M26.67,5.68434189e-14 L26.67,6.02 C26.67,9.184 27.538,10.332 30.072,10.332 C32.718,10.332 33.502,8.876 33.502,5.908 L33.502,5.68434189e-14 L32.172,5.68434189e-14 L32.172,6.02 C32.172,8.022 31.822,9.1 30.072,9.1 C28.35,9.1 28,8.162 28,6.174 L28,5.68434189e-14 L26.67,5.68434189e-14 Z" id="Path"></path>
            <path d="M42.028,4.676 C41.748,3.332 40.656,2.492 39.06,2.492 C37.8,2.492 36.218,3.122 36.218,4.578 C36.218,5.88 37.156,6.468 38.346,6.706 L39.284,6.888 C40.236,7.056 40.866,7.406 40.866,8.106 C40.866,8.988 39.984,9.268 39.186,9.268 C38.136,9.268 37.604,8.764 37.436,7.896 L36.078,7.896 C36.218,9.1 37.198,10.332 39.158,10.332 C40.796,10.332 42.168,9.548 42.168,7.952 C42.168,6.44 40.768,5.95 39.466,5.698 L38.626,5.53 C37.884,5.376 37.492,5.11 37.492,4.522 C37.492,3.85 38.248,3.556 39.004,3.556 C39.858,3.556 40.516,3.836 40.684,4.676 L42.028,4.676 Z" id="Path"></path>
            <path d="M48.216,10.332 C49.98,10.332 51.156,9.324 51.464,7.896 L50.134,7.896 C49.868,8.75 49.308,9.282 48.188,9.282 C46.998,9.282 46.158,8.288 46.158,6.776 L51.576,6.776 C51.674,4.088 50.414,2.478 48.216,2.478 C46.228,2.478 44.8,3.99 44.8,6.412 C44.8,8.638 45.934,10.332 48.216,10.332 Z M48.216,3.542 C49.532,3.542 50.218,4.48 50.204,5.712 L46.172,5.712 C46.228,4.256 46.998,3.542 48.216,3.542 Z" id="Shape"></path>
            <path d="M53.9,2.618 L53.9,3.724 L56.042,3.724 L56.042,9.044 L53.914,9.044 L53.914,10.15 L59.906,10.15 L59.906,9.044 L57.33,9.044 L57.33,6.398 C57.33,4.746 57.89,3.794 59.332,3.794 L60.606,3.794 L60.606,2.618 L59.318,2.618 C58.394,2.618 57.666,3.122 57.302,3.962 L57.302,2.618 L53.9,2.618 Z" id="Path"></path>
            <polygon id="Path" points="0 28.15 6.048 28.15 6.048 26.89 1.33 26.89 1.33 23.544 5.768 23.544 5.768 22.284 1.33 22.284 1.33 19.26 6.048 19.26 6.048 18 0 18"></polygon>
            <polygon id="Path" points="15.19 20.618 13.762 20.618 11.998 23.208 10.248 20.618 8.806 20.618 11.27 24.286 8.652 28.15 10.108 28.15 11.998 25.35 13.888 28.15 15.344 28.15 12.712 24.272"></polygon>
            <path d="M19.348,20.618 L18.06,20.618 L18.06,30.6 L19.348,30.6 L19.348,27.086 C19.768,27.8 20.454,28.332 21.574,28.332 C23.31,28.332 24.612,26.904 24.612,24.412 C24.612,21.934 23.31,20.492 21.574,20.492 C20.454,20.492 19.768,21.024 19.348,21.752 L19.348,20.618 Z M19.292,24.412 C19.292,22.424 20.23,21.57 21.308,21.57 C22.596,21.57 23.254,22.62 23.254,24.412 C23.254,26.204 22.596,27.268 21.308,27.268 C20.23,27.268 19.292,26.4 19.292,24.412 Z" id="Shape"></path>
            <path d="M30.128,28.332 C31.892,28.332 33.068,27.324 33.376,25.896 L32.046,25.896 C31.78,26.75 31.22,27.282 30.1,27.282 C28.91,27.282 28.07,26.288 28.07,24.776 L33.488,24.776 C33.586,22.088 32.326,20.478 30.128,20.478 C28.14,20.478 26.712,21.99 26.712,24.412 C26.712,26.638 27.846,28.332 30.128,28.332 Z M30.128,21.542 C31.444,21.542 32.13,22.48 32.116,23.712 L28.084,23.712 C28.14,22.256 28.91,21.542 30.128,21.542 Z" id="Shape"></path>
            <path d="M35.812,20.618 L35.812,21.724 L37.954,21.724 L37.954,27.044 L35.826,27.044 L35.826,28.15 L41.818,28.15 L41.818,27.044 L39.242,27.044 L39.242,24.398 C39.242,22.746 39.802,21.794 41.244,21.794 L42.518,21.794 L42.518,20.618 L41.23,20.618 C40.306,20.618 39.578,21.122 39.214,21.962 L39.214,20.618 L35.812,20.618 Z" id="Path"></path>
            <path d="M47.656,18 L47.656,19.526 L48.944,19.526 L48.944,18 L47.656,18 Z M45.528,20.618 L45.528,21.724 L47.656,21.724 L47.656,27.044 L45.528,27.044 L45.528,28.15 L51.086,28.15 L51.086,27.044 L48.944,27.044 L48.944,20.618 L45.528,20.618 Z" id="Shape"></path>
            <path d="M57.26,28.332 C59.024,28.332 60.2,27.324 60.508,25.896 L59.178,25.896 C58.912,26.75 58.352,27.282 57.232,27.282 C56.042,27.282 55.202,26.288 55.202,24.776 L60.62,24.776 C60.718,22.088 59.458,20.478 57.26,20.478 C55.272,20.478 53.844,21.99 53.844,24.412 C53.844,26.638 54.978,28.332 57.26,28.332 Z M57.26,21.542 C58.576,21.542 59.262,22.48 59.248,23.712 L55.216,23.712 C55.272,22.256 56.042,21.542 57.26,21.542 Z" id="Shape"></path>
            <path d="M64.624,20.618 L63.336,20.618 L63.336,28.15 L64.624,28.15 L64.624,24.062 C64.624,22.452 65.254,21.584 66.416,21.584 C67.816,21.584 67.914,22.592 67.914,23.81 L67.914,28.15 L69.202,28.15 L69.202,23.362 C69.202,21.696 68.656,20.492 66.836,20.492 C65.646,20.492 65.002,21.038 64.624,21.682 L64.624,20.618 Z" id="Path"></path>
            <path d="M75.446,20.492 C73.29,20.492 71.988,22.172 71.988,24.412 C71.988,26.708 73.234,28.332 75.32,28.332 C77,28.332 78.344,27.226 78.554,25.728 L77.224,25.728 C77.056,26.54 76.412,27.282 75.39,27.282 C74.27,27.282 73.346,26.33 73.346,24.412 C73.346,22.522 74.27,21.556 75.39,21.556 C76.314,21.556 77,22.2 77.168,23.124 L78.47,23.124 C78.358,21.766 77.196,20.492 75.446,20.492 Z" id="Path"></path>
            <path d="M84.392,28.332 C86.156,28.332 87.332,27.324 87.64,25.896 L86.31,25.896 C86.044,26.75 85.484,27.282 84.364,27.282 C83.174,27.282 82.334,26.288 82.334,24.776 L87.752,24.776 C87.85,22.088 86.59,20.478 84.392,20.478 C82.404,20.478 80.976,21.99 80.976,24.412 C80.976,26.638 82.11,28.332 84.392,28.332 Z M84.392,21.542 C85.708,21.542 86.394,22.48 86.38,23.712 L82.348,23.712 C82.404,22.256 83.174,21.542 84.392,21.542 Z" id="Shape"></path>
            <path d="M28.588,42.3 C28.588,45.128 29.666,47.382 30.506,48.6 L31.57,48.6 C30.646,47.102 29.89,44.932 29.89,42.3 C29.89,39.668 30.646,37.498 31.57,36 L30.506,36 C29.666,37.218 28.588,39.472 28.588,42.3 Z" id="Path"></path>
            <path d="M35.714,36 L35.714,42.02 C35.714,45.184 36.582,46.332 39.116,46.332 C41.762,46.332 42.546,44.876 42.546,41.908 L42.546,36 L41.216,36 L41.216,42.02 C41.216,44.022 40.866,45.1 39.116,45.1 C37.394,45.1 37.044,44.162 37.044,42.174 L37.044,36 L35.714,36 Z" id="Path"></path>
            <polygon id="Path" points="44.114 46.15 45.584 46.15 48.16 41.992 50.708 46.15 52.234 46.15 48.93 40.746 51.87 36 50.414 36 48.202 39.556 46.032 36 44.492 36 47.432 40.802"></polygon>
            <path d="M58.716,42.3 C58.716,39.472 57.624,37.218 56.784,36 L55.734,36 C56.644,37.498 57.4,39.668 57.4,42.3 C57.4,44.932 56.644,47.102 55.734,48.6 L56.784,48.6 C57.624,47.382 58.716,45.128 58.716,42.3 Z" id="Path"></path>
        </g>
        <g id="User" transform="translate(161.388806, 205.850000)" fill="#10162F" fill-rule="nonzero">
            <path d="M0,0 L0,6.02 C0,9.184 0.868,10.332 3.402,10.332 C6.048,10.332 6.832,8.876 6.832,5.908 L6.832,0 L5.502,0 L5.502,6.02 C5.502,8.022 5.152,9.1 3.402,9.1 C1.68,9.1 1.33,8.162 1.33,6.174 L1.33,0 L0,0 Z" id="Path"></path>
            <path d="M15.358,4.676 C15.078,3.332 13.986,2.492 12.39,2.492 C11.13,2.492 9.548,3.122 9.548,4.578 C9.548,5.88 10.486,6.468 11.676,6.706 L12.614,6.888 C13.566,7.056 14.196,7.406 14.196,8.106 C14.196,8.988 13.314,9.268 12.516,9.268 C11.466,9.268 10.934,8.764 10.766,7.896 L9.408,7.896 C9.548,9.1 10.528,10.332 12.488,10.332 C14.126,10.332 15.498,9.548 15.498,7.952 C15.498,6.44 14.098,5.95 12.796,5.698 L11.956,5.53 C11.214,5.376 10.822,5.11 10.822,4.522 C10.822,3.85 11.578,3.556 12.334,3.556 C13.188,3.556 13.846,3.836 14.014,4.676 L15.358,4.676 Z" id="Path"></path>
            <path d="M21.546,10.332 C23.31,10.332 24.486,9.324 24.794,7.896 L23.464,7.896 C23.198,8.75 22.638,9.282 21.518,9.282 C20.328,9.282 19.488,8.288 19.488,6.776 L24.906,6.776 C25.004,4.088 23.744,2.478 21.546,2.478 C19.558,2.478 18.13,3.99 18.13,6.412 C18.13,8.638 19.264,10.332 21.546,10.332 Z M21.546,3.542 C22.862,3.542 23.548,4.48 23.534,5.712 L19.502,5.712 C19.558,4.256 20.328,3.542 21.546,3.542 Z" id="Shape"></path>
            <path d="M27.23,2.618 L27.23,3.724 L29.372,3.724 L29.372,9.044 L27.244,9.044 L27.244,10.15 L33.236,10.15 L33.236,9.044 L30.66,9.044 L30.66,6.398 C30.66,4.746 31.22,3.794 32.662,3.794 L33.936,3.794 L33.936,2.618 L32.648,2.618 C31.724,2.618 30.996,3.122 30.632,3.962 L30.632,2.618 L27.23,2.618 Z" id="Path"></path>
        </g>
        <g id="System" transform="translate(319.204806, 205.668000)" fill="#10162F" fill-rule="nonzero">
            <path d="M2.744,5.544 L3.85,5.81 C4.956,6.062 5.754,6.538 5.754,7.588 C5.754,8.75 4.718,9.282 3.71,9.282 C2.408,9.282 1.456,8.526 1.316,7.168 L0,7.168 C0.112,9.184 1.61,10.514 3.668,10.514 C5.628,10.514 7.098,9.38 7.098,7.49 C7.098,5.558 5.67,4.844 4.032,4.48 L3.024,4.256 C2.212,4.074 1.554,3.64 1.554,2.744 C1.554,1.694 2.52,1.232 3.444,1.232 C4.368,1.232 5.418,1.638 5.572,2.856 L6.888,2.856 C6.664,0.84 5.082,0 3.514,0 C1.694,0 0.182,1.036 0.182,2.786 C0.182,4.396 1.414,5.25 2.744,5.544 Z" id="Path"></path>
            <path d="M10.64,12.782 C12.236,12.782 12.656,12.138 13.188,10.654 L15.974,2.8 L14.644,2.8 L12.642,8.61 L10.598,2.8 L9.184,2.8 L11.998,10.332 L11.942,10.5 C11.55,11.578 11.298,11.676 10.514,11.676 L9.156,11.676 L9.156,12.782 L10.64,12.782 Z" id="Path"></path>
            <path d="M24.542,4.858 C24.262,3.514 23.17,2.674 21.574,2.674 C20.314,2.674 18.732,3.304 18.732,4.76 C18.732,6.062 19.67,6.65 20.86,6.888 L21.798,7.07 C22.75,7.238 23.38,7.588 23.38,8.288 C23.38,9.17 22.498,9.45 21.7,9.45 C20.65,9.45 20.118,8.946 19.95,8.078 L18.592,8.078 C18.732,9.282 19.712,10.514 21.672,10.514 C23.31,10.514 24.682,9.73 24.682,8.134 C24.682,6.622 23.282,6.132 21.98,5.88 L21.14,5.712 C20.398,5.558 20.006,5.292 20.006,4.704 C20.006,4.032 20.762,3.738 21.518,3.738 C22.372,3.738 23.03,4.018 23.198,4.858 L24.542,4.858 Z" id="Path"></path>
            <path d="M28.924,2.8 L26.782,2.8 L26.782,3.906 L28.924,3.906 L28.924,8.442 C28.924,10.01 29.316,10.332 30.688,10.332 L33.292,10.332 L33.292,9.226 L30.968,9.226 C30.254,9.226 30.212,9.03 30.212,8.26 L30.212,3.906 L33.292,3.906 L33.292,2.8 L30.212,2.8 L30.212,0.91 L28.924,0.91 L28.924,2.8 Z" id="Path"></path>
            <path d="M39.774,10.514 C41.538,10.514 42.714,9.506 43.022,8.078 L41.692,8.078 C41.426,8.932 40.866,9.464 39.746,9.464 C38.556,9.464 37.716,8.47 37.716,6.958 L43.134,6.958 C43.232,4.27 41.972,2.66 39.774,2.66 C37.786,2.66 36.358,4.172 36.358,6.594 C36.358,8.82 37.492,10.514 39.774,10.514 Z M39.774,3.724 C41.09,3.724 41.776,4.662 41.762,5.894 L37.73,5.894 C37.786,4.438 38.556,3.724 39.774,3.724 Z" id="Shape"></path>
            <path d="M49.154,3.626 C48.986,3.122 48.664,2.674 47.978,2.674 C47.264,2.674 46.858,3.108 46.606,3.598 L46.606,2.8 L45.374,2.8 L45.374,10.332 L46.662,10.332 L46.662,6.09 C46.662,4.522 46.858,3.752 47.516,3.752 C48.146,3.752 48.146,4.592 48.146,5.684 L48.146,10.332 L49.434,10.332 L49.434,6.062 C49.434,4.508 49.63,3.752 50.274,3.752 C50.918,3.752 50.918,4.592 50.918,5.684 L50.918,10.332 L52.206,10.332 L52.206,5.026 C52.206,3.038 51.436,2.674 50.652,2.674 C49.966,2.674 49.476,3.038 49.154,3.626 Z" id="Path"></path>
        </g>
    </g>
</svg>